<?xml version="1.0" encoding="utf-8"?>
<!-- Generator: Adobe Illustrator 26.0.1, SVG Export Plug-In . SVG Version: 6.00 Build 0)  -->
<svg version="1.1" id="Layer_1" xmlns="http://www.w3.org/2000/svg" xmlns:xlink="http://www.w3.org/1999/xlink" x="0px" y="0px"
	 viewBox="0 0 42 42" style="enable-background:new 0 0 42 42;" xml:space="preserve">
	 <path fill-rule="evenodd" clip-rule="evenodd" d="M22.6744 4.50247L31.9038 9.66459C32.117 9.78381 32.2944 9.95738 32.4178 10.1674C32.5413 10.3775 32.6064 10.6164 32.6064 10.8597C32.6064 11.1031 32.5413 11.342 32.4178 11.5521C32.2944 11.7621 32.117 11.9357 31.9038 12.0549L22.6745 17.2172C22.0854 17.5467 21.4212 17.7198 20.7456 17.7198C20.0698 17.7198 19.4056 17.5467 18.8166 17.2172L9.5873 12.0549C9.37415 11.9357 9.1967 11.7621 9.0732 11.5521C8.94971 11.342 8.8846 11.1031 8.8846 10.8597C8.8846 10.6164 8.94971 10.3775 9.0732 10.1674C9.1967 9.95738 9.37415 9.78381 9.5873 9.66459L18.8166 4.50247C19.4056 4.17301 20.0698 4 20.7456 4C21.4212 4 22.0854 4.17301 22.6744 4.50247Z" fill="#5048E5"></path>
	 <path opacity="0.7" d="M22.6244 9.34853L35.8422 16.7415C36.0554 16.8607 36.2328 17.0343 36.3563 17.2443C36.4798 17.4544 36.5449 17.6933 36.5449 17.9366C36.5449 18.18 36.4798 18.419 36.3563 18.629C36.2328 18.8391 36.0554 19.0126 35.8422 19.1319L22.6244 26.5248C22.0355 26.8541 21.3712 27.0272 20.6956 27.0272C20.0199 27.0272 19.3557 26.8541 18.7667 26.5248L5.54893 19.1319C5.33578 19.0126 5.15833 18.8391 5.03483 18.629C4.91133 18.419 4.84623 18.18 4.84623 17.9366C4.84623 17.6933 4.91133 17.4544 5.03483 17.2443C5.15833 17.0343 5.33578 16.8607 5.54893 16.7415L18.7667 9.34853C19.3557 9.01916 20.0199 8.84615 20.6956 8.84615C21.3712 8.84615 22.0355 9.01916 22.6244 9.34853Z" fill="#5048E5"></path>
	 <path opacity="0.4" d="M22.9257 14.1939L41.2984 24.4703C41.5113 24.5894 41.6884 24.7626 41.8117 24.9724C41.935 25.182 42 25.4206 42 25.6636C42 25.9065 41.935 26.1451 41.8117 26.3548C41.6884 26.5645 41.5113 26.7378 41.2984 26.8568L22.9257 37.1329C22.3377 37.4618 21.6745 37.6346 21 37.6346C20.3254 37.6346 19.6623 37.4618 19.0743 37.1329L0.701542 26.8568C0.488743 26.7378 0.311581 26.5645 0.188286 26.3548C0.0649948 26.1451 0 25.9065 0 25.6636C0 25.4206 0.0649948 25.182 0.188286 24.9724C0.311581 24.7626 0.488743 24.5894 0.701542 24.4703L19.0743 14.1939C19.6623 13.8651 20.3254 13.6923 21 13.6923C21.6745 13.6923 22.3377 13.8651 22.9257 14.1939Z" fill="#5048E5"></path>
<!-- <style type="text/css">
	.st0{fill:url(#SVGID_1_);}
	.st1{fill:url(#SVGID_00000062151307130685195090000017630735777044305576_);}
	.st2{opacity:0.15;clip-path:url(#SVGID_00000115478859731335982660000011606592556057891769_);}
	.st3{fill:#0BECC6;}
	.st4{fill:#19B5CD;}
	.st5{fill:url(#SVGID_00000085961693849650258990000005103859104095771580_);}
</style> -->
<!-- <g>
	<linearGradient id="SVGID_1_" gradientUnits="userSpaceOnUse" x1="114.4989" y1="283.2621" x2="307.052" y2="283.2621">
		<stop  offset="0" style="stop-color:#678DDB"/>
		<stop  offset="1" style="stop-color:#4A81C7"/>
	</linearGradient>
	<path class="st0" d="M209.9,105c-48.3,0-87.5,35.3-94.6,81.6l-0.8,8.8v20.9l0.6,245.2l97.4-115.4l0.8-48.1l1.1-97v0
		c0-25.7,20.9-46.6,46.6-46.6c20.7,0,40,13.5,46,32.2C299.9,140.4,258.2,105,209.9,105z"/>
	
		<linearGradient id="SVGID_00000033365759637977757480000000431782306872592564_" gradientUnits="userSpaceOnUse" x1="114.4611" y1="403.6779" x2="213.3396" y2="403.6779">
		<stop  offset="0" style="stop-color:#4772CB"/>
		<stop  offset="1" style="stop-color:#4A81C7"/>
	</linearGradient>
	<path style="fill:url(#SVGID_00000033365759637977757480000000431782306872592564_);" d="M114.5,445.2c0,5.3-0.3,11.2,0.6,16.3
		c54-0.7,98.2-45.2,98.2-99.4c0-5.3,0.3-11.2-0.6-16.3C158.7,346.5,114.5,391.1,114.5,445.2z"/>
	<g>
		<defs>
			<path id="SVGID_00000160897272724728000420000003043759910448964019_" d="M209.9,105c-48.3,0-88.3,35.5-95.4,81.8v29.5l0.5,218.9
				c-0.3,3.3-0.5,6.6-0.5,9.9c0,5.3-0.3,11.2,0.6,16.3c54-0.7,98.2-45.2,98.2-99.4c0-5.3,0.3-11.2-0.6-16.3c-0.1,0-0.2,0-0.3,0
				l0.8-47.8l1.1-97v0c0-25.7,20.9-46.6,46.6-46.6c20.7,0,40,13.5,46,32.2C299.9,140.4,258.2,105,209.9,105z"/>
		</defs>
		<clipPath id="SVGID_00000016774306647176763400000014345942795497185681_">
			<use xlink:href="#SVGID_00000160897272724728000420000003043759910448964019_"  style="overflow:visible;"/>
		</clipPath>
		<path style="opacity:0.15;clip-path:url(#SVGID_00000016774306647176763400000014345942795497185681_);" d="M255.4,64.6
			c-80.9,0-146.5,65.6-146.5,146.5c0,0.1,0,0.2,0,0.4c0.1-53.2,43.3-96.4,96.6-96.4c52.2,0,94.8,41.5,96.5,93.3
			c0.1,0.9,0.1,1.8,0.1,2.7c0,0.1,0,0.2,0,0.3c0,0.1,0,0.2,0,0.3c0,0.4,0,0.9,0,1.3c-0.9,23-18.4,41.6-40.8,44.4
			c-0.1,0.2-0.3,0.3-0.5,0.3c-15.4,0.7-40.6,0.3-49.6,0.2c-2.1,0-3.4-0.1-3.4-0.1c-1.5,0-3,0-4.6,0.1c-0.1,0-0.2,0-0.3,0
			c-1.4,0.1-2.9,0.2-4.3,0.3c-0.2,0-0.3,0-0.5,0c-1.4,0.1-2.8,0.3-4.1,0.5c-0.2,0-0.4,0.1-0.6,0.1c-1.4,0.2-2.7,0.4-4,0.7
			c-0.2,0-0.4,0.1-0.6,0.1c-1.3,0.3-2.7,0.5-4,0.9c-0.2,0-0.4,0.1-0.6,0.1c-1.3,0.3-2.6,0.7-4,1.1c-0.2,0-0.3,0.1-0.5,0.1
			c-1.3,0.4-2.7,0.8-4,1.3c-0.1,0-0.2,0.1-0.3,0.1c-1.4,0.5-2.7,1-4.1,1.5c0,0,0,0,0,0c-2.8,1.1-5.5,2.3-8.1,3.6
			c-0.1,0-0.1,0.1-0.2,0.1c-1.3,0.6-2.5,1.3-3.7,2c-0.1,0.1-0.2,0.1-0.3,0.2c-1.2,0.7-2.4,1.4-3.6,2.1c-0.1,0.1-0.2,0.1-0.3,0.2
			c-1.2,0.7-2.3,1.5-3.4,2.3c-0.1,0.1-0.2,0.1-0.3,0.2c-1.1,0.8-2.3,1.6-3.4,2.4c-0.1,0.1-0.2,0.1-0.3,0.2c-1.1,0.9-2.2,1.7-3.3,2.6
			c-0.1,0-0.1,0.1-0.2,0.1c-1.1,0.9-2.2,1.9-3.3,2.9c-2.8,2.6-1.9,11.6-4.4,14.5c-0.9,1-1.8,2.1-2.6,3.1c-0.1,0.1-0.2,0.2-0.2,0.3
			c-0.8,1-1.6,2.1-2.4,3.1c-0.1,0.1-0.2,0.3-0.3,0.4c-0.8,1-1.5,2.1-2.2,3.2c-0.1,0.1-0.2,0.3-0.3,0.4c-0.7,1.1-1.4,2.2-2.1,3.3
			c-0.1,0.1-0.1,0.2-0.2,0.3c-1.4,2.4-2.7,4.8-3.9,7.2c0,0.1-0.1,0.2-0.1,0.3c-0.6,1.2-1.1,2.4-1.6,3.6c-0.1,0.2-0.1,0.3-0.2,0.5
			c-0.5,1.2-1,2.4-1.5,3.6c-0.1,0.2-0.1,0.4-0.2,0.6c-0.5,1.2-0.9,2.4-1.3,3.7c-0.1,0.2-0.1,0.3-0.2,0.5c-0.4,1.3-0.8,2.5-1.2,3.8
			c0,0.1,0,0.2-0.1,0.3c-0.4,1.3-0.7,2.6-1,4c0,0.1,0,0.1-0.1,0.2c-0.3,1.3-0.6,2.6-0.8,4c0,0.2-0.1,0.4-0.1,0.5
			c-0.2,1.3-0.4,2.6-0.6,3.9c0,0.2-0.1,0.4-0.1,0.7c-0.2,1.3-0.3,2.6-0.5,3.9c0,0.2,0,0.4-0.1,0.6c-0.1,1.3-0.2,2.7-0.3,4
			c0,0.2,0,0.3,0,0.5c-0.1,1.4-0.1,2.9-0.1,4.3l-3.5,92.5c0-18,4.8-34.9,13.2-49.4c16.9-29.2,48.3-48.9,84.3-49.4l1.2,0l32.8,0.4
			c4.9,0.5,9.9,0.8,15,0.8c17.8,0,35-3.2,50.8-9c55.9-20.6,95.8-74.4,95.8-137.5C401.9,130.2,336.3,64.6,255.4,64.6z"/>
	</g>
	<g>
		<path class="st3" d="M160.7,262.8c0.1-0.1,0.2-0.1,0.3-0.2C160.9,262.6,160.8,262.7,160.7,262.8z"/>
		<path class="st3" d="M153.4,267.9c0.1-0.1,0.2-0.1,0.3-0.2C153.5,267.8,153.4,267.8,153.4,267.9z"/>
		<path class="st3" d="M157,265.2c0.1-0.1,0.2-0.1,0.3-0.2C157.2,265.1,157.1,265.2,157,265.2z"/>
		<path class="st3" d="M118.1,319.8c0-0.1,0-0.2,0.1-0.3C118.2,319.6,118.2,319.7,118.1,319.8z"/>
		<path class="st3" d="M164.6,260.4c0.1-0.1,0.2-0.1,0.3-0.2C164.8,260.3,164.7,260.4,164.6,260.4z"/>
		<path class="st3" d="M176.9,254.5C176.9,254.5,176.9,254.5,176.9,254.5C176.9,254.5,176.9,254.5,176.9,254.5z"/>
		<path class="st3" d="M124.4,303.3c0-0.1,0.1-0.2,0.1-0.3C124.5,303.1,124.4,303.2,124.4,303.3z"/>
		<path class="st3" d="M117.1,324c0-0.1,0-0.1,0.1-0.2C117.1,323.8,117.1,323.9,117.1,324z"/>
		<path class="st3" d="M168.6,258.3c0.1,0,0.1-0.1,0.2-0.1C168.7,258.2,168.7,258.2,168.6,258.3z"/>
		<path class="st3" d="M133.2,288.6c0.1-0.1,0.2-0.3,0.3-0.4C133.4,288.3,133.3,288.5,133.2,288.6z"/>
		<path class="st3" d="M181,253c0.1,0,0.2-0.1,0.3-0.1C181.2,253,181.1,253,181,253z"/>
		<path class="st3" d="M130.7,292.2c0.1-0.1,0.2-0.3,0.3-0.4C130.9,291.9,130.8,292,130.7,292.2z"/>
		<path class="st3" d="M122.5,307.4c0.1-0.2,0.1-0.3,0.2-0.5C122.7,307.1,122.6,307.2,122.5,307.4z"/>
		<path class="st3" d="M128.4,295.8c0.1-0.1,0.1-0.2,0.2-0.3C128.6,295.6,128.5,295.7,128.4,295.8z"/>
		<path class="st3" d="M119.4,315.7c0.1-0.2,0.1-0.3,0.2-0.5C119.5,315.4,119.4,315.5,119.4,315.7z"/>
		<path class="st3" d="M149.9,270.6c0.1,0,0.1-0.1,0.2-0.1C150,270.6,150,270.6,149.9,270.6z"/>
		<path class="st3" d="M120.8,311.5c0.1-0.2,0.1-0.4,0.2-0.6C121,311.2,120.9,311.4,120.8,311.5z"/>
		<path class="st3" d="M135.8,285.1c0.1-0.1,0.2-0.2,0.2-0.3C136,284.9,135.9,285,135.8,285.1z"/>
		<path class="st3" d="M116.1,328.5c0-0.2,0.1-0.4,0.1-0.5C116.2,328.1,116.2,328.3,116.1,328.5z"/>
		<path class="st3" d="M198.9,248.7c0.2,0,0.4-0.1,0.6-0.1C199.3,248.6,199.1,248.6,198.9,248.7z"/>
		<path class="st3" d="M114.9,337.6c0-0.2,0-0.4,0.1-0.6C114.9,337.2,114.9,337.4,114.9,337.6z"/>
		<path class="st3" d="M114.6,342.1c0-0.2,0-0.3,0-0.5C114.6,341.8,114.6,342,114.6,342.1z"/>
		<path class="st3" d="M203.6,248.1c0.2,0,0.3,0,0.5,0C203.9,248.1,203.8,248.1,203.6,248.1z"/>
		<path class="st3" d="M194.2,249.5c0.2,0,0.4-0.1,0.6-0.1C194.6,249.4,194.4,249.4,194.2,249.5z"/>
		<path class="st3" d="M115.4,333c0-0.2,0.1-0.4,0.1-0.7C115.5,332.6,115.4,332.8,115.4,333z"/>
		<path class="st3" d="M185.3,251.7c0.2,0,0.3-0.1,0.5-0.1C185.6,251.6,185.4,251.6,185.3,251.7z"/>
		<path class="st3" d="M208.4,247.7c0.1,0,0.2,0,0.3,0C208.6,247.7,208.5,247.7,208.4,247.7z"/>
		<path class="st3" d="M189.7,250.5c0.2,0,0.4-0.1,0.6-0.1C190.1,250.4,189.9,250.4,189.7,250.5z"/>
		<path class="st4" d="M121.1,311c0.5-1.2,0.9-2.4,1.5-3.6C122,308.6,121.5,309.8,121.1,311z"/>
		<path class="st4" d="M122.7,306.9c0.5-1.2,1.1-2.4,1.6-3.6C123.8,304.5,123.2,305.7,122.7,306.9z"/>
		<path class="st4" d="M115,337c0.1-1.3,0.3-2.6,0.5-3.9C115.2,334.3,115.1,335.6,115,337z"/>
		<path class="st4" d="M115.5,332.4c0.2-1.3,0.4-2.6,0.6-3.9C115.9,329.8,115.7,331.1,115.5,332.4z"/>
		<path class="st4" d="M117.1,323.8c0.3-1.3,0.7-2.6,1-4C117.8,321.1,117.4,322.4,117.1,323.8z"/>
		<path class="st4" d="M116.2,327.9c0.3-1.3,0.5-2.7,0.8-4C116.8,325.3,116.5,326.6,116.2,327.9z"/>
		<path class="st4" d="M118.2,319.5c0.4-1.3,0.8-2.6,1.2-3.8C119,317,118.6,318.2,118.2,319.5z"/>
		<path class="st4" d="M119.5,315.2c0.4-1.2,0.8-2.4,1.3-3.7C120.4,312.7,119.9,314,119.5,315.2z"/>
		<path class="st4" d="M114.5,346.4c0-1.4,0-2.9,0.1-4.3C114.5,343.5,114.5,345,114.5,346.4z"/>
		<path class="st4" d="M114.6,341.6c0.1-1.4,0.2-2.7,0.3-4C114.8,338.9,114.7,340.3,114.6,341.6z"/>
		<path class="st4" d="M133.5,288.2c0.8-1.1,1.6-2.1,2.4-3.1C135,286.1,134.3,287.1,133.5,288.2z"/>
		<path class="st4" d="M190.3,250.3c1.3-0.3,2.6-0.6,4-0.9C192.9,249.7,191.6,250,190.3,250.3z"/>
		<path class="st4" d="M194.8,249.3c1.3-0.3,2.7-0.5,4-0.7C197.5,248.9,196.2,249.1,194.8,249.3z"/>
		<path class="st4" d="M199.5,248.6c1.4-0.2,2.8-0.4,4.1-0.5C202.2,248.2,200.8,248.4,199.5,248.6z"/>
		<path class="st4" d="M185.7,251.5c1.3-0.4,2.6-0.7,4-1.1C188.4,250.8,187,251.1,185.7,251.5z"/>
		<path class="st4" d="M181.3,252.9c1.3-0.4,2.6-0.9,4-1.3C183.9,252,182.6,252.5,181.3,252.9z"/>
		<path class="st4" d="M176.9,254.5c1.3-0.5,2.7-1,4.1-1.5C179.6,253.5,178.3,254,176.9,254.5z"/>
		<path class="st4" d="M204.1,248c1.4-0.1,2.9-0.2,4.3-0.3C207,247.8,205.5,247.9,204.1,248z"/>
		<path class="st4" d="M213.3,247.6c0,0,1.2,0,3.4,0.1C215.5,247.6,214.4,247.6,213.3,247.6z"/>
		<path class="st4" d="M208.7,247.7c1.5-0.1,3-0.1,4.6-0.1C211.8,247.6,210.3,247.7,208.7,247.7z"/>
		<path class="st4" d="M131,291.8c0.7-1.1,1.4-2.1,2.2-3.2C132.4,289.6,131.7,290.7,131,291.8z"/>
		<path class="st4" d="M146.6,273.5c1.1-1,2.2-1.9,3.3-2.9C148.8,271.6,147.7,272.5,146.6,273.5z"/>
		<path class="st4" d="M136.1,284.8c0.8-1.1,1.7-2.1,2.6-3.1C137.8,282.7,136.9,283.7,136.1,284.8z"/>
		<path class="st4" d="M128.6,295.5c0.7-1.1,1.4-2.2,2.1-3.3C130,293.3,129.3,294.4,128.6,295.5z"/>
		<path class="st4" d="M124.5,303c1.2-2.5,2.5-4.9,3.9-7.2C127,298.2,125.7,300.6,124.5,303z"/>
		<path class="st4" d="M150.1,270.5c1.1-0.9,2.2-1.8,3.3-2.6C152.2,268.7,151.1,269.6,150.1,270.5z"/>
		<path class="st4" d="M153.6,267.7c1.1-0.8,2.2-1.6,3.4-2.4C155.8,266,154.7,266.9,153.6,267.7z"/>
		<path class="st4" d="M164.9,260.3c1.2-0.7,2.5-1.4,3.7-2C167.4,258.9,166.1,259.6,164.9,260.3z"/>
		<path class="st4" d="M161,262.6c1.2-0.7,2.4-1.4,3.6-2.1C163.4,261.1,162.2,261.8,161,262.6z"/>
		<path class="st4" d="M168.8,258.2c2.6-1.3,5.3-2.6,8.1-3.6C174.1,255.6,171.4,256.9,168.8,258.2z"/>
		<path class="st4" d="M157.3,265c1.1-0.8,2.3-1.5,3.4-2.3C159.5,263.5,158.4,264.3,157.3,265z"/>
		
			<linearGradient id="SVGID_00000110448970648984618160000009908548204314428803_" gradientUnits="userSpaceOnUse" x1="114.4989" y1="249.86" x2="407.5389" y2="249.86">
			<stop  offset="0" style="stop-color:#4C9AFF"/>
			<stop  offset="1" style="stop-color:#56B8E9"/>
		</linearGradient>
		<path style="fill:url(#SVGID_00000110448970648984618160000009908548204314428803_);" d="M261,54.5
			c-80.9,0-146.5,65.6-146.5,146.5c0,0.1,0,0.2,0,0.4c0.1-53.2,43.3-96.4,96.6-96.4c52.2,0,94.8,41.5,96.5,93.3
			c0.1,0.9,0.1,1.8,0.1,2.7c0,0.1,0,0.2,0,0.3c0,0.1,0,0.2,0,0.3c0,0.4,0,0.9,0,1.3c-0.9,23-18.4,41.6-40.8,44.4
			c-0.1,0.2-0.3,0.3-0.5,0.3c-15.4,0.7-40.6,0.3-49.6,0.2c-2.1,0-3.4-0.1-3.4-0.1c-1.5,0-3,0-4.6,0.1c-0.1,0-0.2,0-0.3,0
			c-1.4,0.1-2.9,0.2-4.3,0.3c-0.2,0-0.3,0-0.5,0c-1.4,0.1-2.8,0.3-4.1,0.5c-0.2,0-0.4,0.1-0.6,0.1c-1.4,0.2-2.7,0.4-4,0.7
			c-0.2,0-0.4,0.1-0.6,0.1c-1.3,0.3-2.7,0.5-4,0.9c-0.2,0-0.4,0.1-0.6,0.1c-1.3,0.3-2.6,0.7-4,1.1c-0.2,0-0.3,0.1-0.5,0.1
			c-1.3,0.4-2.7,0.8-4,1.3c-0.1,0-0.2,0.1-0.3,0.1c-1.4,0.5-2.7,1-4.1,1.5c0,0,0,0,0,0c-2.8,1.1-5.5,2.3-8.1,3.6
			c-0.1,0-0.1,0.1-0.2,0.1c-1.3,0.6-2.5,1.3-3.7,2c-0.1,0.1-0.2,0.1-0.3,0.2c-1.2,0.7-2.4,1.4-3.6,2.1c-0.1,0.1-0.2,0.1-0.3,0.2
			c-1.2,0.7-2.3,1.5-3.4,2.3c-0.1,0.1-0.2,0.1-0.3,0.2c-1.1,0.8-2.3,1.6-3.4,2.4c-0.1,0.1-0.2,0.1-0.3,0.2c-1.1,0.9-2.2,1.7-3.3,2.6
			c-0.1,0-0.1,0.1-0.2,0.1c-1.1,0.9-2.2,1.9-3.3,2.9c-2.8,2.6-5.5,5.3-8,8.2c-0.9,1-1.8,2.1-2.6,3.1c-0.1,0.1-0.2,0.2-0.2,0.3
			c-0.8,1-1.6,2.1-2.4,3.1c-0.1,0.1-0.2,0.3-0.3,0.4c-0.8,1-1.5,2.1-2.2,3.2c-0.1,0.1-0.2,0.3-0.3,0.4c-0.7,1.1-1.4,2.2-2.1,3.3
			c-0.1,0.1-0.1,0.2-0.2,0.3c-1.4,2.4-2.7,4.8-3.9,7.2c0,0.1-0.1,0.2-0.1,0.3c-0.6,1.2-1.1,2.4-1.6,3.6c-0.1,0.2-0.1,0.3-0.2,0.5
			c-0.5,1.2-1,2.4-1.5,3.6c-0.1,0.2-0.1,0.4-0.2,0.6c-0.5,1.2-0.9,2.4-1.3,3.7c-0.1,0.2-0.1,0.3-0.2,0.5c-0.4,1.3-0.8,2.5-1.2,3.8
			c0,0.1,0,0.2-0.1,0.3c-0.4,1.3-0.7,2.6-1,4c0,0.1,0,0.1-0.1,0.2c-0.3,1.3-0.6,2.6-0.8,4c0,0.2-0.1,0.4-0.1,0.5
			c-0.2,1.3-0.4,2.6-0.6,3.9c0,0.2-0.1,0.4-0.1,0.7c-0.2,1.3-0.3,2.6-0.5,3.9c0,0.2,0,0.4-0.1,0.6c-0.1,1.3-0.2,2.7-0.3,4
			c0,0.2,0,0.3,0,0.5c-0.1,1.4-0.1,2.9-0.1,4.3v98.8c0-18,4.8-34.9,13.2-49.4c16.9-29.2,48.3-48.9,84.3-49.4l1.2,0l32.8,0.4
			c4.9,0.5,9.9,0.8,15,0.8c17.8,0,35-3.2,50.8-9c55.9-20.6,95.8-74.4,95.8-137.5C407.5,120.1,341.9,54.5,261,54.5z"/>
	</g>
</g> -->
</svg>
